<svg xmlns="http://www.w3.org/2000/svg" width="960" height="280" viewBox="0 0 960 280" role="img" aria-labelledby="ht">
  <title id="ht">Partenariat - ecoles, robotique pedagogique et essais produits</title>
  <defs>
    <linearGradient id="hbg" x1="0%" y1="0%" x2="100%" y2="100%">
      <stop offset="0%" style="stop-color:#0d3d4a"/>
      <stop offset="100%" style="stop-color:#1a6b7c"/>
    </linearGradient>
    <linearGradient id="hacc" x1="0%" y1="0%" x2="0%" y2="100%">
      <stop offset="0%" style="stop-color:#f4b942"/>
      <stop offset="100%" style="stop-color:#e89420"/>
    </linearGradient>
  </defs>
  <rect width="960" height="280" fill="url(#hbg)" rx="18"/>
  <rect x="120" y="88" width="100" height="130" rx="8" fill="#e8f4f6" stroke="#b8dde4" stroke-width="3"/>
  <line x1="140" y1="115" x2="200" y2="115" stroke="#1a6b7c" stroke-width="4" stroke-linecap="round"/>
  <line x1="140" y1="135" x2="190" y2="135" stroke="#5a9aa8" stroke-width="3" stroke-linecap="round"/>
  <line x1="140" y1="155" x2="185" y2="155" stroke="#5a9aa8" stroke-width="3" stroke-linecap="round"/>
  <g transform="translate(360 95)">
    <rect x="0" y="40" width="88" height="70" rx="12" fill="#2d8fa0" stroke="#fff" stroke-width="2" opacity="0.95"/>
    <rect x="22" y="12" width="44" height="36" rx="8" fill="#4db8c9" stroke="#fff" stroke-width="2"/>
    <circle cx="34" cy="28" r="6" fill="#fff"/>
    <circle cx="54" cy="28" r="6" fill="#fff"/>
    <rect x="8" y="118" width="20" height="36" rx="4" fill="#1a6b7c"/>
    <rect x="60" y="118" width="20" height="36" rx="4" fill="#1a6b7c"/>
  </g>
  <g transform="translate(520 108)">
    <path d="M20 80 C8 70 0 55 8 42 C14 32 28 28 38 36 L52 48 C58 38 72 35 82 44 C92 54 92 68 82 78 L58 100 C48 108 32 100 20 80 Z" fill="#f0c97a" stroke="#c9a055" stroke-width="2"/>
    <path d="M75 55 C88 48 105 52 115 65 C125 78 120 98 105 108" fill="none" stroke="#f0c97a" stroke-width="14" stroke-linecap="round"/>
  </g>
  <g transform="translate(720 100)">
    <rect x="0" y="28" width="120" height="88" rx="10" fill="#d4eaf0" stroke="#2d8fa0" stroke-width="3"/>
    <path d="M0 48 L60 12 L120 48" fill="#a8d8e0" stroke="#2d8fa0" stroke-width="2"/>
    <circle cx="60" cy="78" r="18" fill="url(#hacc)" opacity="0.9"/>
    <path d="M52 78 L58 84 L72 68" fill="none" stroke="#fff" stroke-width="4" stroke-linecap="round" stroke-linejoin="round"/>
  </g>
  <text x="480" y="252" text-anchor="middle" fill="#dff9fb" font-family="system-ui,sans-serif" font-size="20" font-weight="600">Collaboration - exigence pedagogique</text>
</svg>
